<mxfile host="app.diagrams.net" agent="Mozilla/5.0 (Macintosh; Intel Mac OS X 10_15_7) AppleWebKit/605.1.15 (KHTML, like Gecko) Version/18.3 Safari/605.1.15" version="26.0.11">
  <diagram id="wFE0QG_FPsp0jaGvCLVb" name="Page-1">
    <mxGraphModel dx="954" dy="552" grid="1" gridSize="10" guides="1" tooltips="1" connect="1" arrows="1" fold="1" page="1" pageScale="1" pageWidth="850" pageHeight="1100" math="0" shadow="0">
      <root>
        <mxCell id="0" />
        <mxCell id="1" parent="0" />
        <mxCell id="_5mSTuPxr-ZiKRkBDSY7-1" value="" style="swimlane;fontStyle=2;childLayout=stackLayout;horizontal=1;startSize=28;horizontalStack=1;resizeParent=1;resizeParentMax=0;resizeLast=0;collapsible=0;marginBottom=0;swimlaneFillColor=none;fontFamily=Permanent Marker;fontSize=16;points=[];verticalAlign=top;stackBorder=0;resizable=1;strokeWidth=2;sketch=1;disableMultiStroke=1;fillColor=#f8cecc;strokeColor=#b85450;gradientColor=#ea6b66;" parent="1" vertex="1">
          <mxGeometry x="50" y="40" width="2300" height="930" as="geometry" />
        </mxCell>
        <object label="Architektur und Optimierung" status="New" id="_5mSTuPxr-ZiKRkBDSY7-2">
          <mxCell style="swimlane;strokeWidth=2;fontFamily=Permanent Marker;html=0;startSize=1;verticalAlign=bottom;spacingBottom=5;points=[];childLayout=stackLayout;stackBorder=20;stackSpacing=20;resizeLast=0;resizeParent=1;horizontalStack=0;collapsible=0;sketch=1;fillStyle=solid;fillColor=#e6d0de;strokeColor=#996185;gradientColor=#d5739d;" parent="_5mSTuPxr-ZiKRkBDSY7-1" vertex="1">
            <mxGeometry y="28" width="390" height="902" as="geometry" />
          </mxCell>
        </object>
        <object label="Transfomer model Architektur&lt;div&gt;&lt;ol&gt;&lt;li&gt;self-attention &lt;span style=&quot;color: rgb(255, 51, 51);&quot;&gt;wordbeziehungen kontextbezogen&lt;/span&gt;&lt;/li&gt;&lt;li&gt;positional encoding&lt;span style=&quot;color: rgb(255, 51, 51);&quot;&gt; fügt Sequenz&amp;nbsp; hinzu&lt;/span&gt;&lt;/li&gt;&lt;li&gt;feed forward &lt;span style=&quot;color: rgb(255, 51, 51);&quot;&gt;Verarbeitung und Daten Transform&lt;/span&gt;&lt;/li&gt;&lt;li&gt;layer normalization &lt;span style=&quot;color: rgb(255, 51, 51);&quot;&gt;Optimierung und Verallgemeinerung&amp;nbsp;&lt;/span&gt;&lt;/li&gt;&lt;/ol&gt;&lt;/div&gt;" placeholders="1" id="_5mSTuPxr-ZiKRkBDSY7-3">
          <mxCell style="whiteSpace=wrap;html=1;strokeWidth=2;fontStyle=1;spacingTop=0;rounded=1;arcSize=9;points=[];sketch=1;fontFamily=Permanent Marker;hachureGap=8;fillWeight=1;align=left;fillColor=#fff2cc;gradientColor=#ffd966;strokeColor=#d6b656;" parent="_5mSTuPxr-ZiKRkBDSY7-2" vertex="1">
            <mxGeometry x="20" y="21" width="350" height="119" as="geometry" />
          </mxCell>
        </object>
        <object label="Optimierungstrategien&lt;div&gt;&lt;ol&gt;&lt;li&gt;pre-training und fine tuning &lt;span style=&quot;color: rgb(255, 51, 51);&quot;&gt;Training auf riesige Menge Daten um allgemeine Sprachverständnis&lt;/span&gt;&lt;/li&gt;&lt;li&gt;LoRA low rank adaptation &lt;span style=&quot;color: rgb(255, 51, 51);&quot;&gt;das Modell mit manche parameters feinbestimmen&amp;nbsp;&lt;/span&gt;&lt;/li&gt;&lt;li&gt;Knowledge Distillation &lt;span style=&quot;color: rgb(255, 51, 51);&quot;&gt;kleinere Modelle &amp;nbsp;erzeugen, die von große model lernen&lt;/span&gt;&lt;/li&gt;&lt;li&gt;Quantisierung &lt;span style=&quot;color: rgb(255, 51, 51);&quot;&gt;4/bit, 8/bit reduziert Speicherbedarf und macht schnelle inferenz&lt;/span&gt;&lt;/li&gt;&lt;/ol&gt;&lt;/div&gt;" placeholders="1" id="_5mSTuPxr-ZiKRkBDSY7-4">
          <mxCell style="whiteSpace=wrap;html=1;strokeWidth=2;fontStyle=1;spacingTop=0;rounded=1;arcSize=9;points=[];sketch=1;fontFamily=Permanent Marker;hachureGap=8;fillWeight=1;align=left;fillColor=#fff2cc;gradientColor=#ffd966;strokeColor=#d6b656;" parent="_5mSTuPxr-ZiKRkBDSY7-2" vertex="1">
            <mxGeometry x="20" y="160" width="350" height="180" as="geometry" />
          </mxCell>
        </object>
        <object label="lifecycle management" status="New" id="QGwA4jflYJvlayZgIJCA-5">
          <mxCell style="swimlane;strokeWidth=2;fontFamily=Permanent Marker;html=0;startSize=1;verticalAlign=bottom;spacingBottom=5;points=[];childLayout=stackLayout;stackBorder=20;stackSpacing=20;resizeLast=0;resizeParent=1;horizontalStack=0;collapsible=0;sketch=1;strokeColor=none;fillStyle=solid;fillColor=#A0522D;" vertex="1" parent="_5mSTuPxr-ZiKRkBDSY7-1">
            <mxGeometry x="390" y="28" width="350" height="902" as="geometry" />
          </mxCell>
        </object>
        <object label="&lt;div&gt;Daten Beschaffung und preprocessing&lt;br&gt;&lt;/div&gt;&lt;div&gt;&lt;ol&gt;&lt;li&gt;scraping von web Daten Dokumente und Büchern&lt;/li&gt;&lt;li&gt;Entfernen die Duplikaten, Tokeniesierung,normalisierung&lt;/li&gt;&lt;/ol&gt;&lt;/div&gt;" placeholders="1" id="QGwA4jflYJvlayZgIJCA-6">
          <mxCell style="whiteSpace=wrap;html=1;strokeWidth=2;fontStyle=1;spacingTop=0;rounded=1;arcSize=9;points=[];sketch=1;fontFamily=Permanent Marker;hachureGap=8;fillWeight=1;fillColor=#d5e8d4;strokeColor=#82b366;gradientColor=#97d077;align=left;" vertex="1" parent="QGwA4jflYJvlayZgIJCA-5">
            <mxGeometry x="20" y="21" width="310" height="119" as="geometry" />
          </mxCell>
        </object>
        <object label="Pretraining&lt;div&gt;&lt;ol&gt;&lt;li&gt;trainieren mit riesigen Textkorpora&lt;/li&gt;&lt;li&gt;selbst überwachtes lernen mit masked language modeling oder casual language modeling&lt;/li&gt;&lt;/ol&gt;&lt;/div&gt;" placeholders="1" id="QGwA4jflYJvlayZgIJCA-7">
          <mxCell style="whiteSpace=wrap;html=1;strokeWidth=2;fillColor=#d5e8d4;fontStyle=1;spacingTop=0;rounded=1;arcSize=9;points=[];sketch=1;fontFamily=Permanent Marker;hachureGap=8;fillWeight=1;strokeColor=#82b366;gradientColor=#97d077;align=left;" vertex="1" parent="QGwA4jflYJvlayZgIJCA-5">
            <mxGeometry x="20" y="160" width="310" height="110" as="geometry" />
          </mxCell>
        </object>
        <object label="Fine tuning und Anpassung&lt;div&gt;&lt;ol&gt;&lt;li&gt;Domain Spezifisches training&lt;/li&gt;&lt;li&gt;reinforcement learning mit Human feedback&lt;/li&gt;&lt;/ol&gt;&lt;/div&gt;" placeholders="1" id="QGwA4jflYJvlayZgIJCA-8">
          <mxCell style="whiteSpace=wrap;html=1;strokeWidth=2;fillColor=#d5e8d4;fontStyle=1;spacingTop=0;rounded=1;arcSize=9;points=[];sketch=1;fontFamily=Permanent Marker;hachureGap=8;fillWeight=1;gradientColor=#97d077;strokeColor=#82b366;align=left;" vertex="1" parent="QGwA4jflYJvlayZgIJCA-5">
            <mxGeometry x="20" y="290" width="310" height="80" as="geometry" />
          </mxCell>
        </object>
        <object label="Evaluation and testing&lt;div&gt;&lt;ol&gt;&lt;li&gt;benchmarking with NLP test (GLUE,MMLU)&lt;/li&gt;&lt;li&gt;Überprüfung mit Bias ,Halluzination, Robustheit&amp;nbsp;&lt;/li&gt;&lt;/ol&gt;&lt;/div&gt;" placeholders="1" id="QGwA4jflYJvlayZgIJCA-17">
          <mxCell style="whiteSpace=wrap;html=1;strokeWidth=2;fillColor=#d5e8d4;fontStyle=1;spacingTop=0;rounded=1;arcSize=9;points=[];sketch=1;fontFamily=Permanent Marker;hachureGap=8;fillWeight=1;gradientColor=#97d077;strokeColor=#82b366;align=left;" vertex="1" parent="QGwA4jflYJvlayZgIJCA-5">
            <mxGeometry x="20" y="390" width="310" height="80" as="geometry" />
          </mxCell>
        </object>
        <object label="Deployment und skalierung&lt;br&gt;&lt;div&gt;&lt;ol&gt;&lt;li&gt;Optimierung für clod&lt;/li&gt;&lt;li&gt;Model Komprimierung für Edge AI&amp;nbsp;&lt;/li&gt;&lt;/ol&gt;&lt;/div&gt;" placeholders="1" id="QGwA4jflYJvlayZgIJCA-18">
          <mxCell style="whiteSpace=wrap;html=1;strokeWidth=2;fillColor=#d5e8d4;fontStyle=1;spacingTop=0;rounded=1;arcSize=9;points=[];sketch=1;fontFamily=Permanent Marker;hachureGap=8;fillWeight=1;gradientColor=#97d077;strokeColor=#82b366;align=left;" vertex="1" parent="QGwA4jflYJvlayZgIJCA-5">
            <mxGeometry x="20" y="490" width="310" height="80" as="geometry" />
          </mxCell>
        </object>
        <object label="Monitoring und Iterative Verbesserung&lt;br&gt;&lt;div&gt;&lt;ol&gt;&lt;li&gt;Echtzeit feedback durch user Interaktionen&amp;nbsp;&lt;/li&gt;&lt;li&gt;Kontinuierliche Nachtrainieren&lt;/li&gt;&lt;/ol&gt;&lt;/div&gt;" placeholders="1" id="QGwA4jflYJvlayZgIJCA-19">
          <mxCell style="whiteSpace=wrap;html=1;strokeWidth=2;fillColor=#d5e8d4;fontStyle=1;spacingTop=0;rounded=1;arcSize=9;points=[];sketch=1;fontFamily=Permanent Marker;hachureGap=8;fillWeight=1;gradientColor=#97d077;strokeColor=#82b366;align=left;" vertex="1" parent="QGwA4jflYJvlayZgIJCA-5">
            <mxGeometry x="20" y="590" width="310" height="80" as="geometry" />
          </mxCell>
        </object>
        <object label="performance, metrics evaluation" status="New" id="QGwA4jflYJvlayZgIJCA-1">
          <mxCell style="swimlane;strokeWidth=2;fontFamily=Permanent Marker;html=0;startSize=1;verticalAlign=bottom;spacingBottom=5;points=[];childLayout=stackLayout;stackBorder=20;stackSpacing=20;resizeLast=0;resizeParent=1;horizontalStack=0;collapsible=0;sketch=1;strokeColor=#b85450;fillStyle=solid;fillColor=#f8cecc;gradientColor=#ea6b66;" vertex="1" parent="_5mSTuPxr-ZiKRkBDSY7-1">
            <mxGeometry x="740" y="28" width="440" height="902" as="geometry" />
          </mxCell>
        </object>
        <object label="wichtige Metriken&lt;div&gt;&lt;ol&gt;&lt;li&gt;Preplexity PPL :&amp;nbsp;&lt;span style=&quot;font-weight: 400;&quot;&gt;Misst, wie gut das Modell zukünftige Tokens vorhersagen kann (niedriger ist besser).#&lt;/span&gt;&lt;/li&gt;&lt;li&gt;&lt;b&gt;BLEU (Bilingual Evaluation Understudy):&amp;nbsp;&lt;/b&gt;&lt;span style=&quot;font-weight: 400;&quot;&gt;Bewertet die Qualität von Übersetzungen basierend auf Wortübereinstimmungen.&lt;/span&gt;&lt;/li&gt;&lt;li&gt;&lt;b&gt;ROUGE (Recall-Oriented Understudy for Gisting Evaluation):&lt;/b&gt;&lt;span style=&quot;font-weight: 400;&quot; class=&quot;s1&quot;&gt;&lt;b&gt;Gisting Evaluation)&lt;/b&gt;&lt;/span&gt;&lt;span style=&quot;font-weight: 400;&quot; class=&quot;s2&quot;&gt;&amp;nbsp;&lt;/span&gt;&lt;span style=&quot;font-weight: 400;&quot;&gt;Bewertet die Qualität von Textzusammenfassungen.&lt;/span&gt;&lt;/li&gt;&lt;li&gt;&lt;b&gt;F1-Score:&amp;nbsp;&lt;/b&gt;&lt;span style=&quot;font-weight: 400;&quot;&gt;Misst Präzision und Recall in NLP-Aufgaben.&lt;/span&gt;&lt;/li&gt;&lt;li&gt;&lt;b&gt;Winograd Schema Challenge:&amp;nbsp;&lt;/b&gt;&lt;span style=&quot;font-weight: 400;&quot;&gt;Misst logisches Denken und kontextuelles Verständnis.&lt;/span&gt;&lt;/li&gt;&lt;li&gt;&lt;b&gt;MMLU (Massive Multitask Language Understanding):&amp;nbsp;&lt;/b&gt;&lt;span style=&quot;font-weight: 400;&quot;&gt;Evaluierung auf domänenspezifischem Wissen.&lt;/span&gt;&lt;/li&gt;&lt;li&gt;&lt;span style=&quot;font-weight: 400;&quot;&gt;&lt;p class=&quot;p1&quot;&gt;&lt;br&gt;&lt;/p&gt;&lt;/span&gt;&lt;/li&gt;&lt;/ol&gt;&lt;/div&gt;" placeholders="1" id="QGwA4jflYJvlayZgIJCA-2">
          <mxCell style="whiteSpace=wrap;html=1;strokeWidth=2;fillColor=#dae8fc;fontStyle=1;spacingTop=0;rounded=1;arcSize=9;points=[];sketch=1;fontFamily=Permanent Marker;hachureGap=8;fillWeight=1;gradientColor=#7ea6e0;strokeColor=#6c8ebf;align=left;" vertex="1" parent="QGwA4jflYJvlayZgIJCA-1">
            <mxGeometry x="20" y="21" width="400" height="259" as="geometry" />
          </mxCell>
        </object>
        <object label="Qualitativ Evaluierung&amp;nbsp;&lt;div&gt;&lt;ol&gt;&lt;li&gt;Human Evaluation :&amp;nbsp;&lt;span style=&quot;font-weight: 400;&quot;&gt;Nutzerbewertungen für Textqualität&lt;/span&gt;&lt;/li&gt;&lt;li&gt;Bias Detection:&amp;nbsp;&lt;span style=&quot;font-weight: 400;&quot;&gt;Identifizierung diskriminierender Muster&lt;/span&gt;&lt;/li&gt;&lt;li&gt;Toxicity check:&amp;nbsp;&lt;span style=&quot;font-weight: 400;&quot;&gt;Filtern von unangemessenem Output&lt;/span&gt;&lt;/li&gt;&lt;/ol&gt;&lt;/div&gt;" placeholders="1" id="QGwA4jflYJvlayZgIJCA-3">
          <mxCell style="whiteSpace=wrap;html=1;strokeWidth=2;fillColor=#dae8fc;fontStyle=1;spacingTop=0;rounded=1;arcSize=9;points=[];sketch=1;fontFamily=Permanent Marker;hachureGap=8;fillWeight=1;gradientColor=#7ea6e0;strokeColor=#6c8ebf;align=left;" vertex="1" parent="QGwA4jflYJvlayZgIJCA-1">
            <mxGeometry x="20" y="300" width="400" height="100" as="geometry" />
          </mxCell>
        </object>
        <object label="skalierung" status="In progress" id="_5mSTuPxr-ZiKRkBDSY7-6">
          <mxCell style="swimlane;strokeWidth=2;fontFamily=Permanent Marker;html=0;startSize=1;verticalAlign=bottom;spacingBottom=5;points=[];childLayout=stackLayout;stackBorder=20;stackSpacing=20;resizeLast=0;resizeParent=1;horizontalStack=0;collapsible=0;sketch=1;strokeColor=#b85450;fillStyle=solid;fillColor=#f8cecc;gradientColor=#ea6b66;" parent="_5mSTuPxr-ZiKRkBDSY7-1" vertex="1">
            <mxGeometry x="1180" y="28" width="380" height="902" as="geometry" />
          </mxCell>
        </object>
        <object label="Herausforderung &amp;nbsp;bei der Skalierung : Optimierungansätze für Training &amp;amp; Inferenz&amp;nbsp;&lt;div&gt;&lt;ol&gt;&lt;li&gt;Model parallemsism:&amp;nbsp;&lt;span style=&quot;font-weight: 400;&quot;&gt;(Sharding, Pipeline-Parallelismus)&lt;/span&gt;&lt;/li&gt;&lt;li&gt;Data Parallesism &lt;span style=&quot;font-weight: 400;&quot;&gt;:&amp;nbsp;&lt;/span&gt;&lt;span style=&quot;font-weight: 400;&quot;&gt;(Batches über GPUs/TPUs verteilt)&lt;/span&gt;&lt;/li&gt;&lt;li&gt;Mixture of experts:&lt;span style=&quot;font-weight: 400;&quot;&gt;&amp;nbsp;&lt;/span&gt;&lt;span style=&quot;font-weight: 400;&quot;&gt;Aktiviert nur spezialisierte Sub-Netzwerke&lt;/span&gt;&lt;/li&gt;&lt;li&gt;Distillation und Quantization&lt;span style=&quot;font-weight: 400;&quot;&gt;:&amp;nbsp;&lt;/span&gt;&lt;span style=&quot;font-weight: 400;&quot;&gt;Speichereffiziente Modellkomprimierung&lt;/span&gt;&lt;/li&gt;&lt;/ol&gt;&lt;/div&gt;" placeholders="1" id="_5mSTuPxr-ZiKRkBDSY7-7">
          <mxCell style="whiteSpace=wrap;html=1;strokeWidth=2;fillColor=#e6d0de;fontStyle=1;spacingTop=0;rounded=1;arcSize=9;points=[];sketch=1;fontFamily=Permanent Marker;hachureGap=8;fillWeight=1;gradientColor=#d5739d;strokeColor=#996185;align=left;" parent="_5mSTuPxr-ZiKRkBDSY7-6" vertex="1">
            <mxGeometry x="20" y="21" width="340" height="149" as="geometry" />
          </mxCell>
        </object>
        <object label="Hardware Anforderungen für Skalierung&lt;div&gt;&lt;ol&gt;&lt;li&gt;GPU&lt;/li&gt;&lt;li&gt;TPU&lt;/li&gt;&lt;li&gt;FPGA&lt;/li&gt;&lt;li&gt;Edges AI&lt;/li&gt;&lt;/ol&gt;&lt;/div&gt;" placeholders="1" id="_5mSTuPxr-ZiKRkBDSY7-8">
          <mxCell style="whiteSpace=wrap;html=1;strokeWidth=2;fillColor=#e6d0de;fontStyle=1;spacingTop=0;rounded=1;arcSize=9;points=[];sketch=1;fontFamily=Permanent Marker;hachureGap=8;fillWeight=1;gradientColor=#d5739d;strokeColor=#996185;align=left;" parent="_5mSTuPxr-ZiKRkBDSY7-6" vertex="1">
            <mxGeometry x="20" y="190" width="340" height="120" as="geometry" />
          </mxCell>
        </object>
        <object label="Deployment Optimierung&lt;div&gt;&lt;ol&gt;&lt;li&gt;Cloud deployment&lt;/li&gt;&lt;li&gt;On Promise LLM (für Sicherheit und Datenschutz)&lt;/li&gt;&lt;li&gt;Federated learning für Edge AI (dezenteralle model)&lt;/li&gt;&lt;/ol&gt;&lt;/div&gt;" placeholders="1" id="QGwA4jflYJvlayZgIJCA-20">
          <mxCell style="whiteSpace=wrap;html=1;strokeWidth=2;fillColor=#e6d0de;fontStyle=1;spacingTop=0;rounded=1;arcSize=9;points=[];sketch=1;fontFamily=Permanent Marker;hachureGap=8;fillWeight=1;gradientColor=#d5739d;strokeColor=#996185;align=left;" vertex="1" parent="_5mSTuPxr-ZiKRkBDSY7-6">
            <mxGeometry x="20" y="330" width="340" height="120" as="geometry" />
          </mxCell>
        </object>
        <object label="Sicherheit unfortunately Ethinks" status="Completed" id="_5mSTuPxr-ZiKRkBDSY7-9">
          <mxCell style="swimlane;strokeWidth=2;fontFamily=Permanent Marker;html=0;startSize=1;verticalAlign=bottom;spacingBottom=5;points=[];childLayout=stackLayout;stackBorder=20;stackSpacing=20;resizeLast=0;resizeParent=1;horizontalStack=0;collapsible=0;sketch=1;strokeColor=#b85450;fillStyle=solid;fillColor=#f8cecc;gradientColor=#ea6b66;" parent="_5mSTuPxr-ZiKRkBDSY7-1" vertex="1">
            <mxGeometry x="1560" y="28" width="370" height="902" as="geometry" />
          </mxCell>
        </object>
        <object label="Sicherheit und bias reduzieren&lt;div&gt;&lt;ol&gt;&lt;li&gt;Adversarial training:&amp;nbsp;&lt;span style=&quot;font-weight: 400;&quot;&gt;&amp;nbsp;&lt;/span&gt;&lt;span style=&quot;font-weight: 400;&quot;&gt;Schutz vor manipulierten Inputs&lt;/span&gt;&lt;/li&gt;&lt;li&gt;Bias detection&lt;span style=&quot;font-weight: 400;&quot;&gt;:&amp;nbsp;&lt;/span&gt;&lt;span style=&quot;font-weight: 400;&quot;&gt;Algorithmische Fairness &amp;amp; Ethikchecks&lt;/span&gt;&lt;/li&gt;&lt;li&gt;Differntial privacy:&amp;nbsp;&lt;span style=&quot;font-weight: 400;&quot;&gt;Datenschutzkonforme KI-Trainings&lt;/span&gt;&lt;/li&gt;&lt;/ol&gt;&lt;div&gt;&lt;br&gt;&lt;/div&gt;&lt;/div&gt;" placeholders="1" id="_5mSTuPxr-ZiKRkBDSY7-10">
          <mxCell style="whiteSpace=wrap;html=1;strokeWidth=2;fontStyle=1;spacingTop=0;rounded=1;arcSize=9;points=[];sketch=1;fontFamily=Permanent Marker;hachureGap=8;fillWeight=1;fillColor=#ffff88;strokeColor=#36393d;align=left;" parent="_5mSTuPxr-ZiKRkBDSY7-9" vertex="1">
            <mxGeometry x="20" y="21" width="330" height="149" as="geometry" />
          </mxCell>
        </object>
        <object label="Halluzination in LLM vermeiden&lt;div&gt;&lt;br&gt;&lt;/div&gt;&lt;div&gt;&lt;p class=&quot;p1&quot;&gt;&lt;span class=&quot;s1&quot;&gt;❌ LLMs können&amp;nbsp;&lt;/span&gt;&lt;b&gt;falsche oder erfundene Fakten&lt;/b&gt;&lt;span class=&quot;s1&quot;&gt;&amp;nbsp;generieren.&lt;/span&gt;&lt;/p&gt;&lt;p class=&quot;p1&quot;&gt;✔ Lösung:&amp;nbsp;&lt;span class=&quot;s2&quot;&gt;&lt;b&gt;Retrieval-Augmented Generation (RAG)&lt;/b&gt;&lt;/span&gt;&amp;nbsp;für faktenbasiertes Antworten.&lt;/p&gt;&lt;/div&gt;" placeholders="1" id="_5mSTuPxr-ZiKRkBDSY7-11">
          <mxCell style="whiteSpace=wrap;html=1;strokeWidth=2;fillColor=#ffff88;fontStyle=1;spacingTop=0;rounded=1;arcSize=9;points=[];sketch=1;fontFamily=Permanent Marker;hachureGap=8;fillWeight=1;strokeColor=#36393d;align=left;" parent="_5mSTuPxr-ZiKRkBDSY7-9" vertex="1">
            <mxGeometry x="20" y="190" width="330" height="160" as="geometry" />
          </mxCell>
        </object>
        <object label="Kontrollierte AI Nutzung&lt;div&gt;&lt;ol&gt;&lt;li&gt;Human in the loop Ansätze:&amp;nbsp;&lt;span style=&quot;font-weight: 400;&quot;&gt;für kritische Anwendungen&lt;/span&gt;&lt;/li&gt;&lt;li&gt;Erklärbare KI &lt;span style=&quot;font-weight: 400;&quot;&gt;:&amp;nbsp;&lt;/span&gt;&lt;span style=&quot;font-weight: 400;&quot;&gt;zur Nachvollziehbarkeit von Entscheidungen&lt;/span&gt;&lt;/li&gt;&lt;/ol&gt;&lt;/div&gt;" placeholders="1" id="_5mSTuPxr-ZiKRkBDSY7-12">
          <mxCell style="whiteSpace=wrap;html=1;strokeWidth=2;fillColor=#ffff88;fontStyle=1;spacingTop=0;rounded=1;arcSize=9;points=[];sketch=1;fontFamily=Permanent Marker;hachureGap=8;fillWeight=1;strokeColor=#36393d;align=left;" parent="_5mSTuPxr-ZiKRkBDSY7-9" vertex="1">
            <mxGeometry x="20" y="370" width="330" height="80" as="geometry" />
          </mxCell>
        </object>
        <object label="Zukunft Entwicklung" status="Completed" id="QGwA4jflYJvlayZgIJCA-9">
          <mxCell style="swimlane;strokeWidth=2;fontFamily=Permanent Marker;html=0;startSize=1;verticalAlign=bottom;spacingBottom=5;points=[];childLayout=stackLayout;stackBorder=20;stackSpacing=20;resizeLast=0;resizeParent=1;horizontalStack=0;collapsible=0;sketch=1;strokeColor=none;fillStyle=solid;fillColor=#1BA1E2;" vertex="1" parent="_5mSTuPxr-ZiKRkBDSY7-1">
            <mxGeometry x="1930" y="28" width="370" height="902" as="geometry" />
          </mxCell>
        </object>
        <object label="&lt;p style=&quot;font-weight: 400;&quot; class=&quot;p1&quot;&gt;&lt;b&gt;Multimodale LLMs (Text + Bild + Audio&lt;/b&gt;&lt;/p&gt;" placeholders="1" id="QGwA4jflYJvlayZgIJCA-10">
          <mxCell style="whiteSpace=wrap;html=1;strokeWidth=2;fillColor=#ffcc99;fontStyle=1;spacingTop=0;rounded=1;arcSize=9;points=[];sketch=1;fontFamily=Permanent Marker;hachureGap=8;fillWeight=1;strokeColor=#36393d;align=left;" vertex="1" parent="QGwA4jflYJvlayZgIJCA-9">
            <mxGeometry x="20" y="21" width="330" height="80" as="geometry" />
          </mxCell>
        </object>
        <object label="&lt;span style=&quot;&quot;&gt;Effiziente KI Modelle mit weniger Ressourcen&lt;/span&gt;&lt;div&gt;&lt;ol&gt;&lt;li&gt;Sparse Transformers und LoRA für kleinere und schnellere Modelle&lt;/li&gt;&lt;li&gt;Energie Effiziente KI: durch nachhaltige Trainingsmethode&amp;nbsp;&lt;/li&gt;&lt;/ol&gt;&lt;/div&gt;" placeholders="1" id="QGwA4jflYJvlayZgIJCA-11">
          <mxCell style="whiteSpace=wrap;html=1;strokeWidth=2;fillColor=#ffcc99;fontStyle=1;spacingTop=0;rounded=1;arcSize=9;points=[];sketch=1;fontFamily=Permanent Marker;hachureGap=8;fillWeight=1;strokeColor=#36393d;align=left;" vertex="1" parent="QGwA4jflYJvlayZgIJCA-9">
            <mxGeometry x="20" y="121" width="330" height="109" as="geometry" />
          </mxCell>
        </object>
      </root>
    </mxGraphModel>
  </diagram>
</mxfile>
